<?xml version="1.0" standalone="no"?>
<!DOCTYPE svg PUBLIC "-//W3C//DTD SVG 20010904//EN"
 "http://www.w3.org/TR/2001/REC-SVG-20010904/DTD/svg10.dtd">
<svg version="1.0" xmlns="http://www.w3.org/2000/svg"
 width="1373.000000pt" height="1373.000000pt" viewBox="0 0 1373.000000 1373.000000"
 preserveAspectRatio="xMidYMid meet">
<metadata>
Created by potrace 1.11, written by Peter Selinger 2001-2013
</metadata>
<g transform="translate(0.000000,1373.000000) scale(0.100000,-0.100000)"
fill="#000000" stroke="none">
<path d="M8299 13698 c0 -2 -2 -19 -4 -38 -5 -72 -16 -167 -26 -235 -6 -38
-12 -81 -14 -95 -10 -72 -38 -222 -61 -322 -14 -62 -27 -120 -29 -128 -11 -54
-84 -295 -122 -403 -153 -447 -375 -872 -685 -1307 -32 -45 -237 -303 -278
-350 -133 -153 -367 -393 -487 -500 -163 -147 -291 -253 -473 -393 -280 -216
-712 -480 -1035 -633 -105 -50 -123 -62 -120 -79 43 -198 84 -418 80 -426 -4
-5 -10 -7 -14 -5 -4 3 -56 7 -117 11 -60 3 -129 8 -154 10 -25 3 -72 7 -105
11 -100 10 -118 12 -170 19 -82 10 -118 15 -150 20 -16 3 -46 7 -65 10 -100
13 -379 63 -389 70 -11 6 -91 16 -91 11 0 -2 6 -11 13 -18 6 -7 41 -47 76 -88
133 -157 435 -468 575 -592 27 -23 61 -54 76 -68 15 -14 51 -45 80 -70 30 -25
72 -61 95 -80 23 -19 56 -46 75 -60 18 -14 50 -39 70 -55 20 -17 70 -55 111
-85 41 -30 79 -58 84 -63 6 -4 52 -38 103 -73 76 -54 91 -68 79 -77 -7 -7 -54
-59 -103 -117 -49 -58 -91 -107 -94 -110 -3 -3 -17 -21 -32 -42 -15 -20 -34
-43 -43 -51 -13 -13 -178 -219 -243 -303 -66 -85 -211 -278 -238 -315 -17 -24
-62 -87 -99 -139 -307 -430 -659 -999 -909 -1470 -68 -128 -296 -585 -296
-593 0 -3 -22 -51 -49 -108 -27 -57 -68 -149 -91 -204 -23 -55 -51 -120 -62
-145 -138 -307 -345 -902 -484 -1385 -15 -52 -104 -388 -109 -415 -2 -8 -9
-37 -15 -65 -6 -27 -13 -57 -15 -65 -2 -8 -12 -55 -24 -105 -11 -49 -22 -103
-25 -120 -3 -16 -15 -75 -26 -129 -11 -55 -22 -113 -25 -130 -2 -17 -15 -96
-29 -176 -13 -80 -27 -170 -31 -200 -3 -30 -8 -62 -10 -70 -2 -8 -7 -40 -10
-70 -3 -30 -8 -66 -10 -80 -8 -54 -20 -165 -30 -280 -2 -19 -6 -64 -9 -100
-13 -144 -24 -328 -30 -517 l-4 -103 52 0 c65 -1 854 -1 963 0 l81 0 12 52
c14 57 102 321 127 378 8 19 19 44 23 55 28 69 99 219 137 293 42 79 160 277
183 305 5 7 44 59 87 117 149 201 408 439 608 558 74 44 243 125 285 136 14 4
34 11 45 16 84 36 291 70 431 72 91 1 251 -9 264 -17 3 -2 23 -6 45 -9 61 -10
176 -44 260 -77 17 -7 32 -13 35 -13 14 -3 165 -80 212 -109 261 -158 506
-398 693 -677 28 -41 52 -77 55 -80 3 -3 13 -18 22 -35 9 -16 43 -77 76 -135
69 -121 123 -236 177 -370 20 -52 41 -104 45 -115 14 -34 68 -196 90 -272 19
-67 23 -73 48 -73 44 -1 994 -1 1031 -1 l33 1 -6 103 c-4 56 -9 120 -11 142
-3 22 -7 67 -10 100 -12 127 -15 154 -31 270 -8 66 -17 129 -19 140 -1 11 -6
40 -9 65 -3 25 -13 83 -22 130 -9 47 -18 96 -20 110 -30 174 -145 649 -198
813 -13 42 -20 77 -15 77 32 0 276 -56 391 -90 183 -53 291 -96 488 -193 643
-318 1166 -873 1460 -1548 26 -60 50 -113 53 -115 4 -4 462 -7 698 -5 l56 1
-3 128 c-5 246 -22 541 -39 697 -2 17 -6 59 -9 95 -4 36 -13 117 -22 180 -9
63 -17 126 -19 140 -8 60 -31 195 -40 240 -3 14 -8 39 -10 55 -28 159 -118
540 -165 700 -12 39 -23 77 -25 85 -1 9 -25 84 -53 167 l-49 151 91 45 c298
144 547 355 721 611 212 314 294 688 230 1056 -21 121 -86 308 -146 418 -43
78 -131 210 -170 252 -17 19 -27 28 -21 20 15 -22 78 -207 96 -281 30 -125 37
-180 40 -286 9 -372 -173 -650 -547 -835 -120 -59 -314 -126 -416 -143 -19 -3
-37 -7 -40 -9 -6 -4 -30 -8 -116 -21 -22 -4 -51 -8 -65 -10 -14 -2 -59 -7
-100 -10 l-75 -5 -45 41 c-69 63 -200 182 -224 202 -12 10 -61 55 -110 100
-49 45 -98 90 -110 100 -12 9 -37 32 -56 50 -19 18 -102 94 -185 168 -82 74
-159 143 -171 154 -11 11 -61 56 -109 100 -49 44 -112 101 -139 126 -28 25
-105 94 -171 154 -126 114 -291 263 -309 280 -6 6 -103 94 -216 195 -113 102
-220 200 -239 218 -19 17 -37 32 -41 32 -6 0 -42 -106 -108 -320 -48 -154
-162 -589 -178 -677 -3 -15 -14 -63 -24 -108 -21 -91 -19 -82 -54 -265 -35
-192 -35 -189 -42 -253 -9 -80 -20 -79 -18 1 3 95 14 318 19 377 2 28 7 84 10
125 10 129 16 183 25 260 5 41 12 102 15 135 3 33 8 71 10 85 2 14 7 45 10 70
8 58 37 247 50 325 11 63 17 101 21 125 6 30 74 369 79 390 2 8 13 58 24 110
31 137 132 522 143 543 11 21 14 20 -64 3 -35 -8 -74 -17 -88 -20 -49 -9 -305
-67 -337 -75 -18 -5 -33 -7 -33 -5 0 9 145 137 224 199 21 17 44 35 50 40 18
17 144 107 246 177 292 200 711 420 1060 557 30 12 64 26 75 30 82 34 303 107
485 161 113 33 118 34 200 51 24 5 48 13 53 18 9 9 8 4 112 491 42 195 82 383
90 416 8 34 16 74 19 89 3 15 11 52 17 81 7 30 10 56 8 58 -2 2 -67 22 -144
44 -77 22 -219 64 -315 92 -96 28 -249 73 -340 100 -259 76 -782 230 -815 240
-16 5 -75 22 -130 38 -55 17 -141 42 -191 57 l-92 27 67 58 c510 440 935 1105
1194 1870 72 211 169 563 192 688 2 15 13 70 24 122 19 94 20 125 2 79 -12
-32 -99 -209 -141 -284 -35 -65 -99 -180 -115 -207 -5 -9 -27 -46 -48 -82 -53
-93 -229 -354 -314 -466 -118 -158 -239 -297 -390 -450 -304 -307 -595 -514
-958 -681 -98 -45 -308 -120 -374 -134 l-34 -7 34 46 c99 135 127 174 222 316
371 553 662 1187 806 1760 12 47 28 110 36 140 31 117 84 418 100 570 3 30 8
71 11 90 26 190 25 800 -1 999 -2 18 -5 51 -7 72 -2 33 -5 47 -9 37z"/>
</g>
</svg>
